<?xml version="1.0" standalone="no"?>
<!DOCTYPE svg PUBLIC "-//W3C//DTD SVG 20010904//EN"
 "http://www.w3.org/TR/2001/REC-SVG-20010904/DTD/svg10.dtd">
<svg version="1.0" xmlns="http://www.w3.org/2000/svg"
 width="512.000000pt" height="512.000000pt" viewBox="0 0 512.000000 512.000000"
 preserveAspectRatio="xMidYMid meet">
<metadata>
Created by potrace 1.11, written by Peter Selinger 2001-2013
</metadata>
<g transform="translate(0.000000,512.000000) scale(0.100000,-0.100000)"
fill="#000000" stroke="none">
<path d="M2085 5105 c-44 -8 -107 -21 -140 -30 -33 -10 -88 -25 -122 -34 -34
-9 -66 -20 -69 -24 -4 -4 -17 -7 -29 -7 -12 0 -25 -3 -29 -7 -15 -15 -76 -31
-76 -20 0 6 -7 1 -16 -11 -8 -12 -20 -22 -25 -22 -5 0 -40 -15 -77 -32 -37
-18 -71 -33 -77 -33 -5 0 -12 -3 -15 -6 -3 -3 -31 -19 -62 -36 -37 -20 -59
-27 -62 -19 -2 6 -5 4 -5 -4 -1 -8 -22 -28 -47 -43 -25 -15 -43 -23 -39 -17 3
6 -1 7 -10 4 -9 -4 -13 -9 -10 -12 9 -9 -47 -41 -64 -35 -12 4 -13 3 -3 -4 10
-7 3 -16 -25 -36 -21 -14 -50 -31 -65 -36 -16 -6 -28 -16 -28 -22 0 -12 -40
-48 -54 -49 -4 0 -5 7 -2 16 6 14 4 15 -9 4 -11 -9 -12 -15 -5 -20 12 -7 -13
-33 -43 -43 -9 -4 -21 -17 -26 -30 -5 -13 -20 -31 -33 -39 -38 -26 -124 -111
-137 -136 -8 -15 -18 -21 -27 -18 -9 3 -12 1 -9 -5 4 -5 -4 -20 -17 -32 -12
-12 -65 -79 -117 -149 -52 -70 -98 -125 -104 -121 -6 4 -8 0 -4 -11 4 -11 -2
-30 -16 -49 -30 -43 -43 -65 -67 -112 -49 -99 -78 -144 -85 -137 -4 4 -6 -3
-3 -15 3 -12 0 -30 -6 -40 -7 -10 -27 -57 -45 -105 -20 -51 -38 -85 -44 -81
-6 3 -7 1 -3 -5 8 -14 -11 -92 -23 -92 -4 0 -8 -12 -9 -27 0 -16 -11 -73 -25
-128 -48 -188 -57 -240 -68 -400 -11 -154 -6 -497 7 -559 5 -22 4 -27 -6 -21
-8 5 -7 0 3 -16 8 -13 22 -67 32 -119 9 -52 28 -134 40 -183 13 -48 21 -87 18
-87 -3 0 -1 -6 5 -12 5 -7 22 -49 37 -93 14 -44 30 -84 35 -90 9 -11 25 -76
22 -88 -2 -5 1 -6 6 -3 4 2 14 -10 21 -27 32 -75 116 -238 128 -248 7 -6 13
-15 13 -20 0 -5 11 -27 25 -48 16 -24 23 -45 19 -57 -5 -15 -4 -16 5 -4 9 13
12 12 25 -5 8 -11 23 -35 33 -53 10 -19 37 -55 61 -80 24 -26 52 -64 63 -84
11 -21 24 -38 29 -38 6 0 10 -7 10 -16 0 -8 4 -13 9 -9 10 6 81 -75 81 -94 0
-6 7 -11 15 -11 8 0 42 -27 75 -60 33 -33 63 -60 66 -60 4 0 114 -90 134 -110
3 -3 52 -36 110 -75 58 -38 107 -73 108 -77 2 -4 11 -8 20 -8 8 0 23 -6 31
-14 9 -7 45 -28 81 -47 36 -19 67 -37 68 -41 2 -5 10 -8 18 -8 8 0 22 -4 32
-9 9 -5 38 -18 64 -28 27 -10 48 -22 48 -26 0 -5 4 -6 10 -2 5 3 17 1 27 -4
25 -13 136 -56 148 -57 19 -2 70 -15 95 -26 14 -5 45 -14 70 -18 25 -5 68 -14
95 -20 145 -32 219 -38 505 -38 162 0 318 4 345 9 108 21 121 23 148 23 15 1
27 4 27 7 0 4 19 9 43 12 23 3 71 15 106 27 35 11 74 20 87 20 13 0 24 4 24 9
0 5 14 12 30 16 71 16 318 126 449 201 35 20 102 62 149 95 71 48 89 56 101
46 14 -10 14 -10 4 4 -14 17 0 39 23 39 7 0 14 3 16 8 2 4 26 25 53 46 52 41
159 140 203 188 14 15 29 25 35 21 6 -4 7 -1 2 6 -5 8 8 28 36 55 24 24 58 60
74 80 17 21 42 52 56 69 14 18 45 61 70 97 24 36 50 71 57 78 6 7 12 17 12 22
0 5 16 29 35 55 20 25 33 50 30 54 -2 5 1 14 9 20 8 7 16 8 18 4 3 -4 3 -2 1
6 -3 13 73 180 87 191 4 3 12 23 18 45 14 51 54 158 62 165 3 3 12 32 20 65 7
33 24 88 36 122 12 34 20 64 17 66 -2 3 3 35 11 73 44 210 60 402 52 604 -10
222 -12 238 -36 365 -35 178 -37 187 -59 260 -12 39 -19 83 -16 100 4 22 3 25
-3 10 -8 -17 -10 -15 -21 18 -7 21 -14 44 -15 50 -2 7 -8 23 -13 37 -6 14 -21
50 -33 80 -38 94 -124 263 -165 325 -11 16 -28 46 -39 65 -10 19 -21 37 -25
40 -19 15 -65 98 -63 115 1 14 -1 16 -7 7 -6 -10 -17 -2 -41 30 -19 24 -64 77
-102 120 -37 42 -68 81 -68 86 0 5 -18 24 -40 42 -31 25 -38 36 -28 43 9 6 7
7 -6 3 -20 -7 -56 18 -56 40 0 6 -15 20 -34 31 -41 21 -126 99 -126 114 0 6
-6 9 -12 6 -11 -3 -65 30 -123 76 -23 18 -135 86 -200 122 -38 21 -72 41 -75
44 -3 3 -9 6 -15 6 -5 0 -39 14 -75 32 -36 17 -74 34 -85 38 l-20 7 20 9 c16
7 14 8 -8 4 -19 -4 -56 5 -108 25 -43 16 -88 30 -99 30 -12 0 -18 5 -15 10 4
6 -5 10 -20 10 -39 0 -115 21 -115 32 0 5 -4 7 -9 4 -5 -3 -48 3 -97 13 -79
18 -132 20 -484 19 -279 0 -418 -4 -475 -13z"/>
<path d="M1731 5046 c-10 -12 -8 -13 8 -9 12 3 21 9 21 14 0 14 -16 11 -29 -5z"/>
<path d="M1560 4980 c0 -5 5 -10 10 -10 6 0 10 5 10 10 0 6 -4 10 -10 10 -5 0
-10 -4 -10 -10z"/>
<path d="M4675 4070 c3 -5 8 -10 11 -10 2 0 4 5 4 10 0 6 -5 10 -11 10 -5 0
-7 -4 -4 -10z"/>
<path d="M4790 3850 c0 -5 5 -10 11 -10 5 0 7 5 4 10 -3 6 -8 10 -11 10 -2 0
-4 -4 -4 -10z"/>
<path d="M4921 3594 c0 -11 3 -14 6 -6 3 7 2 16 -1 19 -3 4 -6 -2 -5 -13z"/>
<path d="M5034 3256 c1 -8 5 -18 8 -22 4 -3 5 1 4 10 -1 8 -5 18 -8 22 -4 3
-5 -1 -4 -10z"/>
<path d="M5112 2710 c0 -14 2 -19 5 -12 2 6 2 18 0 25 -3 6 -5 1 -5 -13z"/>
<path d="M5112 2395 c0 -16 2 -22 5 -12 2 9 2 23 0 30 -3 6 -5 -1 -5 -18z"/>
<path d="M5040 1910 c0 -5 5 -10 10 -10 6 0 10 5 10 10 0 6 -4 10 -10 10 -5 0
-10 -4 -10 -10z"/>
<path d="M201 1484 c0 -11 3 -14 6 -6 3 7 2 16 -1 19 -3 4 -6 -2 -5 -13z"/>
<path d="M226 1443 c-6 -14 -5 -15 5 -6 7 7 10 15 7 18 -3 3 -9 -2 -12 -12z"/>
<path d="M280 1330 c0 -5 5 -10 11 -10 5 0 7 5 4 10 -3 6 -8 10 -11 10 -2 0
-4 -4 -4 -10z"/>
<path d="M350 1199 c0 -5 5 -7 10 -4 6 3 10 8 10 11 0 2 -4 4 -10 4 -5 0 -10
-5 -10 -11z"/>
<path d="M2943 3 c9 -2 25 -2 35 0 9 3 1 5 -18 5 -19 0 -27 -2 -17 -5z"/>
<path d="M3138 3 c7 -3 16 -2 19 1 4 3 -2 6 -13 5 -11 0 -14 -3 -6 -6z"/>
</g>
</svg>
